<svg width="128" height="128" xmlns="http://www.w3.org/2000/svg">
 <!-- Created with Method Draw - http://github.com/duopixel/Method-Draw/ -->
 <g>
  <title>background</title>
  <rect fill="none" id="canvas_background" height="130" width="130" y="-1" x="-1"/>
  <g display="none" overflow="visible" y="0" x="0" height="100%" width="100%" id="canvasGrid">
   <rect fill="url(#gridpattern)" stroke-width="0" y="0" x="0" height="100%" width="100%"/>
  </g>
 </g>
 <g>
  <title>Layer 1</title>
  <path stroke="#000" id="svg_5" d="m82.969901,109.665816c0,0 -13.452493,-0.771048 -20.576911,-3.718728c-7.124418,-2.947716 -10.449122,-6.706044 -10.449122,-6.706044c0,0 3.738846,3.241728 8.9856,5.697936c3.198789,1.497456 6.958297,2.702988 10.772775,2.702988c0,0 -5.889232,-2.579184 -10.306725,-0.736992c0,0 3.182307,-1.694916 8.691847,-0.405288c5.509864,1.289592 8.264286,0.5526 8.264286,0.5526c0,0 -9.308882,-0.036828 -13.346264,-2.10024c-4.037429,-2.063412 -5.0349,-3.242268 -5.0349,-3.242268c0,0 4.179825,3.353004 7.409582,3.758328c3.229757,0.405324 8.786793,-0.073908 8.786793,-0.073908c0,0 -5.746882,0.110736 -7.551979,-0.515808c-1.804771,-0.62622 -8.929189,-1.87902 -10.211454,0.736992c0,0 1.424661,-2.763576 7.931672,-1.952928c6.507011,0.810648 7.124789,0.552888 7.124789,0.552888c0,0 -11.541911,-3.463776 -18.001425,-1.510812c-6.459561,1.952928 -6.032046,3.611016 -6.032046,3.611016c0,0 0.427561,-5.748084 16.196375,-4.716504c0,0 -7.361761,-0.847476 -10.069429,-2.542356c-2.706925,-1.694916 -2.897143,-2.800152 -2.897143,-2.800152c0,0 3.087036,3.647592 6.887075,3.68442c3.799714,0.03708 4.892132,-0.220932 4.892132,-0.220932c0,0 -7.409536,-1.32642 -10.924457,-1.031868c-3.514596,0.294876 -9.213982,1.2528 -12.206443,-2.94768c0,0 2.802243,4.016376 10.449493,2.6163c7.646879,-1.400328 12.443739,0.147276 12.443739,0.147276c0,0 -11.589036,-1.731744 -13.964043,-3.463452c-2.374682,-1.731744 -2.659475,-4.71654 -2.659475,-4.71654c0,0 0.997471,5.011092 5.889232,5.49036c4.892504,0.478944 12.301714,0.368208 14.249207,2.100204c0,0 -4.892132,-2.800404 -9.974482,-2.431908c-5.081979,0.368496 -12.919075,5.453244 -16.908682,4.126824c-3.989561,-1.32642 -5.794657,-0.221184 -5.794657,-0.221184c0,0 1.6627,-1.289592 4.512021,-0.7002c2.850064,0.589716 3.467471,1.473984 8.359604,-1.142028c4.892132,-2.616012 13.203914,-5.858532 18.476111,-3.058416c0,0 -24.63435,-5.293152 -27.293825,-16.052075c0,0 2.341996,7.173504 14.374704,10.366416c12.033079,3.192912 12.729229,2.947716 12.729229,2.947716c0,0 -18.554854,-1.52334 -27.231193,-14.493239c0,0 7.535775,10.07154 19.252072,11.39796c0,0 -9.879536,-2.652804 -17.542618,-10.758888c-7.662014,-8.106372 -7.979864,-10.80882 -7.979864,-10.80882c0,0 9.310275,12.969863 26.916175,15.279299c0,0 -13.790679,-3.058956 -23.66989,-12.823128c-9.879164,-9.764172 -6.791804,-11.680272 -6.791804,-11.680272c0,0 -2.137339,-3.500316 -0.522832,-4.274136c0,0 -3.182307,-2.800404 -2.279736,-5.084748c0,0 2.279736,8.658684 13.916593,14.333147c11.636811,5.674176 12.634282,6.37434 12.634282,6.37434c0,0 -12.064372,-6.411168 -15.864086,-9.506412c-3.799714,-3.094992 -8.074439,-5.490072 -10.544393,-12.122172c0,0 2.375054,6.558444 9.879536,11.053764c7.504157,4.49532 8.976964,4.421412 8.976964,4.421412c0,0 -15.389075,-6.116328 -19.046347,-16.248995c0,0 2.137339,7.479828 19.093843,14.627987c0,0 -17.003954,-7.774668 -19.093843,-16.065143c0,0 -0.379739,-1.215936 0.332568,-1.805364c0,0 -0.855075,-1.584468 -0.569911,-3.574224c0.284793,-1.989504 0.617407,-4.126536 0.617407,-4.126536c0,0 -0.759804,8.400924 9.784264,14.885747c0,0 -12.444111,-11.570364 -8.010461,-21.100787c0,0 -0.950718,5.256828 2.025911,7.663932c0,0 -2.533607,-4.224492 -1.329761,-9.186768c0,0 -0.317107,5.256864 2.849693,10.02222c3.166846,4.765356 13.299186,14.001443 13.299186,14.001443c0,0 -11.905447,-10.808532 -13.805489,-16.900307c-1.899671,-6.091776 -0.823782,-10.071036 -0.823782,-10.071036c0,0 -1.075889,5.698476 3.546911,11.397708c4.6228,5.699016 6.206386,6.337548 6.206386,6.337548c0,0 -12.729925,-10.268244 -7.917232,-21.665663c0,0 -0.316086,11.544984 4.939954,16.507007c5.257061,4.96224 6.839254,5.109552 6.839254,5.109552c0,0 -10.829186,-6.632388 -10.449447,-15.917579c0.380389,-9.285228 2.407693,-9.776448 2.407693,-9.776448c0,0 -4.497257,7.859808 2.722107,15.426071c7.219689,7.566264 5.763364,6.141132 5.763364,6.141132c0,0 -10.258904,-10.316772 -8.232297,-18.374039c2.026607,-8.057232 5.889232,-7.958772 5.889232,-7.958772c0,0 -4.242364,2.161332 -4.052518,7.12332c0.189893,4.962024 6.269668,14.591159 6.269668,14.591159c0,0 -6.776668,-13.215095 -4.939907,-17.293103c1.836064,-4.07772 5.699757,-5.30568 5.699757,-5.30568c0,0 -7.537214,3.340764 -3.167543,12.282264c0,0 -2.722757,-8.498592 4.559518,-12.478104c0,0 -5.192386,3.832236 -3.039539,10.955592c0,0 -0.633239,-8.745408 6.269296,-11.74194c0,0 -4.431886,2.702484 -4.495539,8.155692c0,0 0.950021,-5.502852 6.205736,-8.597844c0,0 -3.989932,4.716252 -3.736107,11.495916c0,0 2.976629,-6.680664 4.43365,-11.593836c0,0 0.252479,2.653092 -0.823782,5.944212c-1.076261,3.291624 -1.582889,3.586212 -1.582889,3.586212c0,0 3.862625,-4.421412 4.052843,-8.744616c0,0 0.189893,4.225284 -1.456325,7.76268c0,0 3.135554,-1.95588 3.530429,-6.28974c0.006175,-0.064584 0.011004,-0.129708 0.015786,-0.195336c0,0 0.886043,6.336972 -2.343714,11.692296c-3.229757,5.355576 -4.749736,5.846544 -4.749736,5.846544c0,0 7.157104,-5.257116 8.233364,-12.527748c0,0 0.126564,4.07718 -1.773107,7.614324c-1.899718,3.53736 -3.92665,6.239844 -3.92665,6.239844c0,0 9.562382,-6.731352 7.979493,-18.816155c0,0 1.836064,6.73002 0.189893,11.839572c-1.646218,5.109552 -9.753343,12.969899 -9.753343,12.969899c0,0 12.603361,-8.646948 13.172947,-22.353551c0,0 1.519979,8.106084 -4.274725,15.475175c0,0 8.54945,-7.516404 8.359604,-14.664563c0,0 1.900043,3.610764 0.284793,8.548236c-1.614554,4.937436 -9.308882,16.507007 -17.288747,19.307411c0,0 21.658418,-9.064296 20.233711,-24.613091c0,0 2.374682,7.074252 -0.569911,13.927823c-2.944639,6.853284 -14.154261,17.317619 -14.154261,17.317619c0,0 16.053932,-11.495916 18.428986,-24.023915c0,0 0.759804,-3.831696 -0.190218,-6.116328c0,0 3.894986,1.32642 4.179779,7.000884c0.284793,5.674176 -3.51455,13.338359 -6.174396,18.717695c-2.659846,5.379588 -8.359232,12.527748 -8.359232,12.527748c0,0 18.523561,-21.960251 15.863389,-32.719427c0,0 4.750061,4.642596 4.179779,10.685556c-0.569586,6.042636 -4.559518,22.844519 -15.673543,30.434795c0,0 11.9691,-7.369092 15.293804,-20.781107c0,0 1.709825,-7.14816 1.424707,-11.054052c0,0 2.374682,8.253648 1.519932,14.443883c-0.85475,6.190236 -9.784264,20.044403 -9.784264,20.044403c0,0 9.784264,-11.569824 10.449122,-18.791639c0,0 1.044968,4.347756 0.285164,8.327304c-0.759804,3.97926 -5.129475,11.42226 -8.834614,15.770015c0,0 7.789647,-8.695512 9.404525,-12.527748c1.614925,-3.831984 1.329761,-6.042672 1.329761,-6.042672c0,0 1.900043,11.93832 -1.139868,17.538839c-3.039911,5.60052 -12.633957,13.927823 -13.298814,17.833427c0,0 4.464571,-9.064008 14.153889,-10.464336c9.689318,-1.400076 15.198857,0.736992 15.198857,0.736992c0,0 -14.723847,-3.684672 -22.60844,3.24252c0,0 -3.989561,3.758328 -4.084832,7.14816c0,0 10.2596,-5.60052 11.874154,-13.264739c1.615204,-7.663932 9.119732,-8.843076 9.119732,-8.843076c0,0 -8.359604,2.431908 -8.264657,9.064296c0.094946,6.632352 -9.499472,14.443595 -11.779207,14.222663c0,0 7.789647,-1.694916 10.544393,-6.779664c0,0 -1.805096,5.158368 -5.699386,8.142912c-3.894986,2.984508 -2.612721,4.2741 -2.612721,4.2741c0,0 1.330086,-3.20544 5.224746,-5.895396c3.894986,-2.689668 9.024414,-7.332264 9.071911,-10.464336c0.04745,-3.131784 4.274725,-6.263856 4.274725,-6.263856c0,0 -3.324704,3.279348 -3.467471,5.6376c-0.142396,2.358 0.332614,6.042672 -5.224375,9.137916c-5.557361,3.094992 -7.884593,8.65872 -7.789647,11.090592c0,0 3.879154,-8.683488 15.278668,-10.402704c0,0 -10.893211,1.670112 -14.755836,11.201364c0,0 7.218993,-9.530712 16.845354,-12.036276c0,0 -10.259229,3.389832 -15.198857,11.692584c0,0 2.913021,-5.896188 12.032057,-6.141384c0,0 -7.599429,0.785808 -10.701925,6.337512c0,0 1.392996,-2.35746 6.586125,-3.192912c5.193082,-0.835452 9.562057,-3.734064 8.485797,-6.485616c0,0 1.329761,3.831444 -5.445886,6.386616c-6.776343,2.555172 -9.623297,8.673552 -9.623297,8.673552c0,0 5.517989,4.052988 9.979357,7.468416c-0.352207,1.912644 -1.568496,2.438928 -2.700286,2.64132c-0.404671,0.07236 -9.852004,-8.169516 -10.390297,-8.333712z" fill-opacity="null" stroke-opacity="null" stroke-width="1.5" fill="#fff"/>
 </g>
</svg>